<?xml version="1.0" standalone="no"?>
<!DOCTYPE svg PUBLIC "-//W3C//DTD SVG 20010904//EN"
 "http://www.w3.org/TR/2001/REC-SVG-20010904/DTD/svg10.dtd">
<svg version="1.0" xmlns="http://www.w3.org/2000/svg"
 width="470.000000pt" height="246.000000pt" viewBox="0 0 470.000000 246.000000"
 preserveAspectRatio="xMidYMid meet">

<g transform="translate(0.000000,246.000000) scale(0.100000,-0.100000)"
fill="#000000" stroke="none">
<path d="M1718 2295 c-190 -62 -351 -116 -357 -120 -17 -10 -13 -51 6 -70 12
-13 26 -15 53 -11 l37 6 62 -172 c57 -158 61 -174 45 -185 -15 -11 -14 -18 12
-93 l29 -80 75 -1 c41 0 89 -2 106 -3 17 -2 105 -6 195 -10 477 -19 574 -26
587 -43 17 -24 15 -43 -5 -43 -10 0 -222 9 -471 21 -249 12 -455 19 -457 17
-3 -3 7 -38 20 -80 l26 -75 271 -6 c149 -4 363 -7 475 -7 l203 0 10 -26 c6
-14 10 -28 10 -31 0 -3 -211 -4 -470 -1 -351 5 -470 3 -470 -6 0 -22 47 -111
69 -130 13 -12 41 -21 74 -24 l52 -4 65 -162 c80 -199 95 -218 178 -224 l61
-4 -15 -24 c-32 -49 7 -114 69 -114 41 0 63 15 76 51 9 25 8 38 -4 62 -8 17
-14 31 -13 33 5 4 473 21 478 17 2 -2 0 -7 -6 -11 -16 -10 -34 -48 -34 -70 0
-11 9 -31 21 -46 26 -33 88 -37 119 -6 28 28 27 87 -2 117 l-21 23 41 0 c23 0
42 5 42 10 0 7 -141 10 -404 10 -370 0 -405 1 -424 18 -20 18 -30 40 -93 215
l-38 107 92 0 93 0 13 -37 c8 -21 34 -84 59 -141 36 -83 51 -106 75 -119 28
-14 65 -14 389 -3 286 11 358 16 358 27 0 11 -66 13 -360 13 l-360 0 -14 22
c-23 37 -89 228 -81 236 3 4 160 10 348 13 380 8 392 9 555 81 98 43 116 60
126 118 8 54 38 491 33 496 -2 3 -58 -20 -123 -50 -66 -29 -150 -67 -189 -83
l-70 -30 3 -149 c1 -82 5 -169 8 -194 3 -25 3 -42 -1 -38 -4 4 -22 86 -40 183
-18 97 -35 178 -37 180 -5 6 -182 21 -463 40 -299 20 -779 56 -782 59 -5 5
-133 369 -131 371 2 1 126 43 276 93 242 80 273 89 281 74 4 -9 27 -72 51
-138 34 -99 47 -124 67 -133 14 -7 27 -10 28 -9 1 2 -22 70 -52 153 -47 130
-52 152 -42 172 11 20 10 27 -7 50 -11 15 -24 28 -30 29 -5 1 -165 -49 -356
-111z"/>
<path d="M2917 2243 c-2 -5 -15 -47 -27 -94 l-22 -87 -52 -13 c-49 -14 -52
-16 -67 -64 l-16 -50 45 -17 c52 -20 94 -57 115 -101 l15 -30 22 44 c13 24 31
56 41 71 27 38 24 70 -11 103 -36 34 -36 46 -9 143 11 40 18 80 15 88 -6 15
-42 20 -49 7z m12 -127 l-22 -76 24 -28 23 -27 -28 27 -29 27 23 81 c13 44 25
79 27 76 2 -2 -6 -38 -18 -80z"/>
<path d="M1915 1870 c-27 -11 -61 -49 -74 -81 -10 -26 -9 -26 52 -32 34 -4
108 -9 165 -13 114 -8 116 -7 87 61 -20 50 -56 62 -106 35 -22 -11 -39 -15
-39 -10 0 15 -38 50 -52 49 -7 0 -22 -4 -33 -9z m207 -47 c10 -9 18 -25 18
-37 0 -19 -1 -19 -17 4 -9 14 -24 30 -33 37 -12 10 -12 12 -1 13 8 0 23 -7 33
-17z"/>
<path d="M3200 1819 c0 -22 11 -21 75 6 30 13 29 13 -22 14 -47 1 -53 -1 -53
-20z"/>
<path d="M30 285 l0 -165 71 0 c130 0 184 47 184 162 0 80 -19 112 -85 146
-32 16 -62 22 -107 22 l-63 0 0 -165z m154 64 c51 -61 23 -151 -51 -165 l-33
-6 0 101 0 101 29 0 c20 0 37 -9 55 -31z"/>
<path d="M422 285 l-2 -165 40 0 40 0 0 165 0 165 -38 0 -37 0 -3 -165z"/>
<path d="M690 428 c-47 -32 -70 -82 -70 -149 0 -92 59 -158 147 -166 90 -8
163 56 163 143 l0 44 -75 0 -75 0 0 -29 c0 -28 3 -30 41 -33 l41 -3 -22 -27
c-21 -28 -58 -36 -95 -22 -24 10 -45 58 -45 104 0 33 6 48 30 72 26 25 36 29
62 24 18 -3 40 -14 51 -23 18 -17 19 -16 38 7 24 32 21 41 -22 62 -49 26 -128
24 -169 -4z"/>
<path d="M1060 285 l0 -165 40 0 40 0 0 165 0 165 -40 0 -40 0 0 -165z"/>
<path d="M1234 428 c3 -13 6 -29 6 -35 0 -8 14 -13 35 -13 l35 0 0 -130 0
-130 40 0 40 0 0 130 0 130 40 0 c39 0 40 1 40 35 l0 35 -121 0 c-121 0 -121
0 -115 -22z"/>
<path d="M1697 438 c-3 -7 -32 -80 -66 -162 -34 -82 -61 -150 -61 -152 0 -2
18 -4 39 -4 34 0 40 4 50 30 10 29 12 30 76 30 64 0 66 -1 76 -30 10 -26 16
-30 50 -30 21 0 39 2 39 4 0 2 -27 70 -61 152 -34 82 -63 155 -66 162 -3 6
-20 12 -38 12 -18 0 -35 -6 -38 -12z m67 -165 c7 -21 4 -23 -28 -23 -20 0 -36
2 -36 5 0 2 7 23 17 46 16 41 16 41 28 18 7 -13 16 -34 19 -46z"/>
<path d="M2020 285 l0 -165 95 0 95 0 0 30 c0 30 -1 30 -55 30 l-55 0 0 135 0
135 -40 0 -40 0 0 -165z"/>
<path d="M2550 286 l0 -166 91 0 c87 0 92 1 120 29 42 43 35 110 -15 133 l-25
11 19 25 c27 33 25 65 -4 99 -22 25 -31 28 -105 31 l-81 4 0 -166z m133 82
c13 -20 -6 -48 -34 -48 -15 0 -19 7 -19 36 0 31 3 35 21 32 12 -2 27 -10 32
-20z m15 -130 c29 -29 2 -68 -47 -68 -18 0 -21 6 -21 40 0 37 2 40 28 40 15 0
33 -5 40 -12z"/>
<path d="M2980 318 c-29 -73 -60 -148 -67 -166 l-13 -32 40 0 c37 0 42 3 51
30 11 29 13 30 76 30 63 0 65 -1 76 -30 10 -26 16 -30 50 -30 45 0 48 -16 -32
181 -58 144 -58 144 -92 147 l-35 3 -54 -133z m105 -14 c21 -51 20 -54 -21
-54 -30 0 -35 3 -29 18 4 9 12 29 17 45 5 15 12 27 14 27 2 0 11 -16 19 -36z"/>
<path d="M3411 424 c-24 -20 -31 -34 -31 -63 0 -49 21 -76 81 -107 40 -20 50
-29 47 -47 -4 -29 -59 -35 -95 -11 -25 16 -27 16 -44 -7 -24 -31 -20 -40 22
-61 76 -39 179 -11 197 54 15 55 -5 88 -76 126 -42 23 -62 39 -62 52 0 25 27
32 70 20 29 -8 37 -7 48 7 29 39 -2 63 -83 63 -32 0 -51 -7 -74 -26z"/>
<path d="M3710 285 l0 -165 40 0 39 0 3 67 3 66 55 -66 55 -67 54 0 53 0 -77
85 -77 85 67 77 66 78 -42 3 c-40 3 -46 0 -79 -40 -19 -23 -45 -54 -57 -68
l-22 -25 -1 68 0 67 -40 0 -40 0 0 -165z"/>
<path d="M4130 285 l0 -165 95 0 95 0 0 30 c0 30 -1 30 -55 30 l-55 0 0 35 0
35 55 0 c54 0 55 0 55 30 0 30 -1 30 -55 30 l-55 0 0 35 0 35 55 0 55 0 0 35
0 35 -95 0 -95 0 0 -165z"/>
<path d="M4440 415 c0 -34 1 -35 40 -35 l40 0 0 -130 0 -130 35 0 35 0 0 130
0 130 40 0 c39 0 40 1 40 35 l0 35 -115 0 -115 0 0 -35z"/>
</g>
</svg>
